<svg xmlns="http://www.w3.org/2000/svg" xmlns:xlink="http://www.w3.org/1999/xlink" viewBox="0 0 1291 1200" width="1291" height="1200" preserveAspectRatio="xMidYMid meet" style="width: 100%; height: 100%; transform: translate3d(0px, 0px, 0px); content-visibility: visible;"><defs><clipPath id="__lottie_element_1902"><rect width="1291" height="1200" x="0" y="0"></rect></clipPath><clipPath id="__lottie_element_1904"><path d="M0,0 L438,0 L438,499 L0,499z"></path></clipPath><clipPath id="__lottie_element_1908"><path d="M0,0 L550,0 L550,250 L0,250z"></path></clipPath><clipPath id="__lottie_element_1918"><path d="M0,0 L596,0 L596,842 L0,842z"></path></clipPath><clipPath id="__lottie_element_1922"><path d="M0,0 L550,0 L550,250 L0,250z"></path></clipPath><clipPath id="__lottie_element_1923"><path fill="#ffffff" clip-rule="nonzero" d=" M224.48199462890625,59 C148.5,54 144.75,115.25 145,164.75 C145.21499633789062,207.3090057373047 144.5,242 212.98199462890625,239 C253.1439971923828,237.24099731445312 306.25,240 295.2149963378906,136.75 C289.23699951171875,80.81600189208984 292.3819885253906,63.46799850463867 224.48199462890625,59" fill-opacity="1"></path></clipPath><clipPath id="__lottie_element_1926"><path d="M0,0 L550,0 L550,250 L0,250z"></path></clipPath><clipPath id="__lottie_element_1966"><path d="M0,0 L596,0 L596,842 L0,842z"></path></clipPath><clipPath id="__lottie_element_1994"><path d="M0,0 L596,0 L596,842 L0,842z"></path></clipPath><clipPath id="__lottie_element_2007"><path d="M0,0 L596,0 L596,842 L0,842z"></path></clipPath><clipPath id="__lottie_element_2008"><path fill="#ffffff" clip-rule="nonzero" d=" M279.85198974609375,83 C-33.21200180053711,83 -70,209.7429962158203 -70,383.3590087890625 C-70,556.9749755859375 -34,659 267.85198974609375,655.718994140625 C587.9929809570312,652.239013671875 663.7030029296875,550.9749755859375 663.7030029296875,377.3590087890625 C663.7030029296875,203.7429962158203 592.9149780273438,83 279.85198974609375,83" fill-opacity="1"></path></clipPath><clipPath id="__lottie_element_2017"><path d="M0,0 L596,0 L596,842 L0,842z"></path></clipPath><clipPath id="__lottie_element_2027"><path d="M0,0 L596,0 L596,842 L0,842z"></path></clipPath><clipPath id="__lottie_element_2031"><path d="M0,0 L596,0 L596,842 L0,842z"></path></clipPath><clipPath id="__lottie_element_2044"><path d="M0,0 L596,0 L596,842 L0,842z"></path></clipPath><clipPath id="__lottie_element_2048"><path d="M0,0 L596,0 L596,842 L0,842z"></path></clipPath><clipPath id="__lottie_element_2049"><path fill="#ffffff" clip-rule="nonzero" d=" M376.8160095214844,286.3450012207031 C339.6669921875,344.4779968261719 428.7650146484375,407.8380126953125 469.0690002441406,341.64801025390625 C507.4309997558594,278.64801025390625 415.0589904785156,226.4980010986328 376.8160095214844,286.3450012207031" fill-opacity="1"></path></clipPath><clipPath id="__lottie_element_2061"><path d="M0,0 L596,0 L596,842 L0,842z"></path></clipPath><clipPath id="__lottie_element_2065"><path d="M0,0 L596,0 L596,842 L0,842z"></path></clipPath><clipPath id="__lottie_element_2066"><path fill="#ffffff" clip-rule="nonzero" d=" M376.8160095214844,286.3450012207031 C339.6669921875,344.4779968261719 428.7650146484375,407.8380126953125 469.0690002441406,341.64801025390625 C507.4309997558594,278.64801025390625 415.0589904785156,226.4980010986328 376.8160095214844,286.3450012207031" fill-opacity="1"></path></clipPath></defs><g clip-path="url(#__lottie_element_1902)"><g clip-path="url(#__lottie_element_1918)" style="display: block;" transform="matrix(1.4479899406433105,0,0,1.4479899406433105,409.9989929199219,6.396240234375)" opacity="1"><g clip-path="url(#__lottie_element_1994)" style="display: none;" transform="matrix(1.0700000524520874,0,0,1.0700000524520874,-20.09002685546875,-51.0650634765625)" opacity="0"><g transform="matrix(1.0232000350952148,0,0,1,298.25518798828125,421)" opacity="1" style="display: block;"><g opacity="1" transform="matrix(1,0,0,1,0,0)"><path stroke-linecap="butt" stroke-linejoin="miter" fill-opacity="0" stroke-miterlimit="4" stroke="rgb(0,46,96)" stroke-opacity="1" stroke-width="4" d=" M-25.65999984741211,263.5 C-90.16300201416016,263 -239.69400024414062,272 -240.18299865722656,307 C-240.61599731445312,338.0329895019531 -154.19400024414062,349.9110107421875 -86.3219985961914,354.4989929199219 C-54.48400115966797,356.6510009765625 3.1710000038146973,358 50.57099914550781,354"></path></g></g><g transform="matrix(1,0,0,1,296.5,418)" opacity="1" style="display: block;"><g opacity="1" transform="matrix(1.161829948425293,0,0,1.0026999711990356,0,0)"><path stroke-linecap="butt" stroke-linejoin="miter" fill-opacity="0" stroke-miterlimit="4" stroke="rgb(0,46,96)" stroke-opacity="1" stroke-width="4" d=" M16.06999969482422,264.5 C46.909000396728516,263.7869873046875 198.91799926757812,267.47100830078125 202.70399475097656,309.9909973144531 C204.85000610351562,334.09698486328125 143.74099731445312,347.5050048828125 121.24099731445312,350.5050048828125"></path></g></g></g><g transform="matrix(1.0219299793243408,0,0,1.0076899528503418,66.30709838867188,692.3956298828125)" opacity="1" style="display: none;"><g opacity="1" transform="matrix(1,0,0,1,214.906005859375,36.724998474121094)"><path fill="rgb(0,46,96)" fill-opacity="1" d=" M214.65699768066406,0 C214.65699768066406,-20.145000457763672 118.5510025024414,-36.474998474121094 -0.0010000000474974513,-36.474998474121094 C-118.552001953125,-36.474998474121094 -214.656005859375,-20.145000457763672 -214.656005859375,0 C-214.656005859375,20.145000457763672 -118.552001953125,36.474998474121094 -0.0010000000474974513,36.474998474121094 C118.5510025024414,36.474998474121094 214.65699768066406,20.145000457763672 214.65699768066406,0z"></path></g></g><g clip-path="url(#__lottie_element_1966)" transform="matrix(1.6240897178649902,0.1617049127817154,-0.1617049127817154,1.6240897178649902,30.099029541015625,-27.9298095703125)" opacity="1" style="display: none;"><g style="display: none;" transform="matrix(-0.6773243546485901,0.9964654445648193,-1.0092928409576416,-0.6860434412956238,510.50994873046875,338.220703125)" opacity="0.15062078077916952"><g opacity="1" transform="matrix(1,0,0,1,54.5359992980957,113.0510025024414)"><path stroke-linecap="butt" stroke-linejoin="miter" fill-opacity="0" stroke-miterlimit="4" stroke="rgb(66,97,237)" stroke-opacity="1" stroke-width="5" d=" M6.285999774932861,-6.801000118255615 C6.285999774932861,-6.801000118255615 6.285999774932861,6.801000118255615 6.285999774932861,6.801000118255615 C6.285999774932861,6.801000118255615 -6.285999774932861,6.801000118255615 -6.285999774932861,6.801000118255615 C-6.285999774932861,6.801000118255615 -6.285999774932861,-6.801000118255615 -6.285999774932861,-6.801000118255615 C-6.285999774932861,-6.801000118255615 6.285999774932861,-6.801000118255615 6.285999774932861,-6.801000118255615z"></path></g></g><g style="display: none;" transform="matrix(0.628254234790802,0.23086626827716827,-0.26859721541404724,0.7309311628341675,446.4436950683594,241.96426391601562)" opacity="0.1188722456921596"><g opacity="1" transform="matrix(1,0,0,1,-192.23300170898438,144.77699279785156)"><path stroke-linecap="butt" stroke-linejoin="miter" fill-opacity="0" stroke-miterlimit="4" stroke="rgb(66,97,237)" stroke-opacity="1" stroke-width="8" d=" M6.017000198364258,-14.760499954223633 C6.017000198364258,-14.760499954223633 6.017000198364258,14.760499954223633 6.017000198364258,14.760499954223633 C6.017000198364258,18.081281661987305 3.320782423019409,20.77750015258789 0,20.77750015258789 C0,20.77750015258789 0,20.77750015258789 0,20.77750015258789 C-3.320782423019409,20.77750015258789 -6.017000198364258,18.081281661987305 -6.017000198364258,14.760499954223633 C-6.017000198364258,14.760499954223633 -6.017000198364258,-14.760499954223633 -6.017000198364258,-14.760499954223633 C-6.017000198364258,-18.081281661987305 -3.320782423019409,-20.77750015258789 0,-20.77750015258789 C0,-20.77750015258789 0,-20.77750015258789 0,-20.77750015258789 C3.320782423019409,-20.77750015258789 6.017000198364258,-18.081281661987305 6.017000198364258,-14.760499954223633z"></path></g></g><g transform="matrix(0.805058479309082,0.61796635389328,-0.61796635389328,0.805058479309082,282.37548828125,322.93389892578125)" opacity="0.24619622347456627" style="display: none;"><g opacity="1" transform="matrix(1,0,0,1,0,0)"><path stroke-linecap="butt" stroke-linejoin="miter" fill-opacity="0" stroke-miterlimit="4" stroke="rgb(66,97,237)" stroke-opacity="1" stroke-width="5" d=" M-156.25,101 C-156.25,101 -156,120.25 -156,120.25 C-156,120.25 -139.25,107 -139.25,107 C-139.25,107 -156.25,101 -156.25,101z"></path></g><g opacity="1" transform="matrix(1,0,0,1,0,0)"><path stroke-linecap="butt" stroke-linejoin="miter" fill-opacity="0" stroke-miterlimit="4" stroke="rgb(66,97,237)" stroke-opacity="1" stroke-width="5" d="M0 0"></path></g></g><g style="display: none;" transform="matrix(0.5254600048065186,0,0,0.5254600048065186,449.12353515625,304.7275695800781)" opacity="0.03737021821639047"><g opacity="1" transform="matrix(1,0,0,1,-143.62100219726562,136.87899780273438)"><path stroke-linecap="butt" stroke-linejoin="miter" fill-opacity="0" stroke-miterlimit="4" stroke="rgb(66,97,237)" stroke-opacity="1" stroke-width="10" d=" M0,-14.378999710083008 C7.935770034790039,-14.378999710083008 14.378999710083008,-7.935770034790039 14.378999710083008,0 C14.378999710083008,7.935770034790039 7.935770034790039,14.378999710083008 0,14.378999710083008 C-7.935770034790039,14.378999710083008 -14.378999710083008,7.935770034790039 -14.378999710083008,0 C-14.378999710083008,-7.935770034790039 -7.935770034790039,-14.378999710083008 0,-14.378999710083008z"></path></g></g><g style="display: none;" transform="matrix(0.5422199964523315,0,0,0.5422199964523315,131.34197998046875,336.7000732421875)" opacity="0.1188722456921596"><g opacity="1" transform="matrix(1,0,0,1,-143.62100219726562,136.87899780273438)"><path stroke-linecap="butt" stroke-linejoin="miter" fill-opacity="0" stroke-miterlimit="4" stroke="rgb(66,97,237)" stroke-opacity="1" stroke-width="10" d=" M0,-14.378999710083008 C7.935770034790039,-14.378999710083008 14.378999710083008,-7.935770034790039 14.378999710083008,0 C14.378999710083008,7.935770034790039 7.935770034790039,14.378999710083008 0,14.378999710083008 C-7.935770034790039,14.378999710083008 -14.378999710083008,7.935770034790039 -14.378999710083008,0 C-14.378999710083008,-7.935770034790039 -7.935770034790039,-14.378999710083008 0,-14.378999710083008z"></path></g></g></g><g clip-path="url(#__lottie_element_2007)" transform="matrix(1,0,0,1,16,108)" opacity="1" style="display: none;"><g clip-path="url(#__lottie_element_2008)"><g clip-path="url(#__lottie_element_2017)" transform="matrix(0.999998927116394,-0.0014486227883026004,0.0014486227883026004,0.999998927116394,1.39044189453125,8.43212890625)" opacity="1" style="display: block;"><g transform="matrix(1,0,0,1,83.99699401855469,71.7860107421875)" opacity="1" style="display: block;"><g opacity="1" transform="matrix(1,0,0,1,216.4669952392578,306.0159912109375)"><path fill="rgb(66,97,237)" fill-opacity="1" d="M0 0"></path></g><g opacity="1" transform="matrix(1,0,0,1,217.53399658203125,305.74700927734375)"><path fill="rgb(66,97,237)" fill-opacity="1" d=" M197.20700073242188,-218.2169952392578 C176.82400512695312,-217.8939971923828 156.06199645996094,-214.1510009765625 135.03199768066406,-207.98399353027344 C123.5979995727539,-217.3260040283203 111.19499969482422,-224.90199279785156 98.18699645996094,-230.69900512695312 C95.50900268554688,-251.1060028076172 90.91000366210938,-270.59600830078125 85.2239990234375,-287.2569885253906 C84.01200103759766,-290.8070068359375 80.22799682617188,-292.49200439453125 76.86900329589844,-290.97100830078125 C52.62799835205078,-279.989013671875 30.11199951171875,-263.4079895019531 8.67300033569336,-243.3419952392578 C-25.176000595092773,-238.66099548339844 -57.858001708984375,-223.41299438476562 -84.0479965209961,-197.56199645996094 C-111.53399658203125,-170.43299865722656 -203.6929931640625,-83.51200103759766 -203.69200134277344,258.37799072265625 C-203.69200134277344,292.49200439453125 135.89599609375,289.5660095214844 129.65699768066406,264.56500244140625 C123.35199737548828,239.29600524902344 118.98600006103516,194.9530029296875 125.69599914550781,135.093994140625 C132.93600463867188,70.51300048828125 162.98199462890625,17.808000564575195 167.90699768066406,10.442999839782715 C196.83599853515625,-32.8129997253418 203.02499389648438,-86.8270034790039 186.38600158691406,-134.71299743652344 C195.85299682617188,-160.85499572753906 201.5019989013672,-188.08999633789062 203.39199829101562,-211.48399353027344 C203.6929931640625,-215.22300720214844 200.8939971923828,-218.2760009765625 197.20700073242188,-218.2169952392578z"></path><path stroke-linecap="butt" stroke-linejoin="miter" fill-opacity="0" stroke-miterlimit="10" stroke="rgb(0,46,96)" stroke-opacity="1" stroke-width="5.41" d=" M197.20700073242188,-218.2169952392578 C176.82400512695312,-217.8939971923828 156.06199645996094,-214.1510009765625 135.03199768066406,-207.98399353027344 C123.5979995727539,-217.3260040283203 111.19499969482422,-224.90199279785156 98.18699645996094,-230.69900512695312 C95.50900268554688,-251.1060028076172 90.91000366210938,-270.59600830078125 85.2239990234375,-287.2569885253906 C84.01200103759766,-290.8070068359375 80.22799682617188,-292.49200439453125 76.86900329589844,-290.97100830078125 C52.62799835205078,-279.989013671875 30.11199951171875,-263.4079895019531 8.67300033569336,-243.3419952392578 C-25.176000595092773,-238.66099548339844 -57.858001708984375,-223.41299438476562 -84.0479965209961,-197.56199645996094 C-111.53399658203125,-170.43299865722656 -203.6929931640625,-83.51200103759766 -203.69200134277344,258.37799072265625 C-203.69200134277344,292.49200439453125 135.89599609375,289.5660095214844 129.65699768066406,264.56500244140625 C123.35199737548828,239.29600524902344 118.98600006103516,194.9530029296875 125.69599914550781,135.093994140625 C132.93600463867188,70.51300048828125 162.98199462890625,17.808000564575195 167.90699768066406,10.442999839782715 C196.83599853515625,-32.8129997253418 203.02499389648438,-86.8270034790039 186.38600158691406,-134.71299743652344 C195.85299682617188,-160.85499572753906 201.5019989013672,-188.08999633789062 203.39199829101562,-211.48399353027344 C203.6929931640625,-215.22300720214844 200.8939971923828,-218.2760009765625 197.20700073242188,-218.2169952392578z"></path></g><g opacity="1" transform="matrix(1,0,0,1,176.0540008544922,429.82501220703125)"><path fill="rgb(72,148,239)" fill-opacity="1" d=" M-128.61199951171875,147.5019989013672 C-128.61199951171875,147.5019989013672 -130.15699768066406,136.82699584960938 -130.2169952392578,132.4239959716797 C-131.02499389648438,73.27300262451172 -127.9280014038086,7.961999893188477 -109.85399627685547,-57.659000396728516 C-91.90599822998047,-122.8270034790039 -23.472999572753906,-161.49899291992188 42.99599838256836,-144.0399932861328 C109.46399688720703,-126.58000183105469 131.02499389648438,-60.694000244140625 117.68199920654297,5.568999767303467 C106.552001953125,60.8380012512207 110.2959976196289,106.35299682617188 113.31099700927734,147.9199981689453 C113.48999786376953,150.38400268554688 112.43299865722656,149.38800048828125 113.05999755859375,151.7530059814453 C115.03299713134766,159.20399475097656 -93.5479965209961,161.49899291992188 -128.61199951171875,147.5019989013672z"></path></g><g opacity="1" transform="matrix(0.9648299813270569,0,0,1.0034199953079224,357.72198486328125,104.99800109863281)"><path stroke-linecap="round" stroke-linejoin="round" fill-opacity="0" stroke="rgb(0,46,96)" stroke-opacity="1" stroke-width="5.41" d=" M-5.8460001945495605,-6.113999843597412 C-1.496000051498413,-2.4700000286102295 5.354000091552734,6.829999923706055 8.345999717712402,12.61400032043457"></path></g><g opacity="1" transform="matrix(1,0,0,1,342.10101318359375,444.7090148925781)"><path fill="rgb(66,97,237)" fill-opacity="1" d=" M14.121999740600586,-60.3390007019043 C11.571000099182129,-42.83599853515625 20.666000366210938,-7.896999835968018 31.691999435424805,22.797000885009766 C35.9630012512207,34.685001373291016 21.18199920654297,60.3380012512207 -2.7809998989105225,35.49700164794922 C-18.014999389648438,19.707000732421875 -29.77199935913086,-12.687999725341797 -35.9630012512207,-33.34400177001953"></path><path stroke-linecap="round" stroke-linejoin="round" fill-opacity="0" stroke="rgb(0,46,96)" stroke-opacity="1" stroke-width="5.41" d=" M14.121999740600586,-60.3390007019043 C11.571000099182129,-42.83599853515625 20.666000366210938,-7.896999835968018 31.691999435424805,22.797000885009766 C35.9630012512207,34.685001373291016 21.18199920654297,60.3380012512207 -2.7809998989105225,35.49700164794922 C-18.014999389648438,19.707000732421875 -29.77199935913086,-12.687999725341797 -35.9630012512207,-33.34400177001953"></path></g></g><g style="display: none;" transform="matrix(1,0,0,1,491.17303466796875,343.8030090332031)" opacity="0.06750000000347527"><g opacity="1" transform="matrix(1,0,0,1,27.74799919128418,28.80299949645996)"><path fill="rgb(66,97,237)" fill-opacity="1" d=" M14.222999572753906,4.3460001945495605 C14.222999572753906,4.3460001945495605 -4.934999942779541,-1.8819999694824219 -14.222999572753906,-4.3460001945495605"></path><path stroke-linecap="round" stroke-linejoin="round" fill-opacity="0" stroke="rgb(0,46,96)" stroke-opacity="1" stroke-width="5.41" d=" M14.222999572753906,4.3460001945495605 C14.222999572753906,4.3460001945495605 -4.934999942779541,-1.8819999694824219 -14.222999572753906,-4.3460001945495605"></path></g><g opacity="1" transform="matrix(1,0,0,1,12.185999870300293,51.297000885009766)"><path fill="rgb(66,97,237)" fill-opacity="1" d=" M8.67300033569336,8.279000282287598 C8.67300033569336,8.279000282287598 -8.67300033569336,-8.279000282287598 -8.67300033569336,-8.279000282287598"></path><path stroke-linecap="round" stroke-linejoin="round" fill-opacity="0" stroke="rgb(0,46,96)" stroke-opacity="1" stroke-width="5.41" d=" M8.67300033569336,8.279000282287598 C8.67300033569336,8.279000282287598 -8.67300033569336,-8.279000282287598 -8.67300033569336,-8.279000282287598"></path></g><g opacity="1" transform="matrix(1,0,0,1,31.160999298095703,3.440999984741211)"><path fill="rgb(66,97,237)" fill-opacity="1" d=" M13.357999801635742,0.7350000143051147 C13.357999801635742,0.7350000143051147 -13.357999801635742,-0.7350000143051147 -13.357999801635742,-0.7350000143051147"></path><path stroke-linecap="round" stroke-linejoin="round" fill-opacity="0" stroke="rgb(0,46,96)" stroke-opacity="1" stroke-width="5.41" d=" M13.357999801635742,0.7350000143051147 C13.357999801635742,0.7350000143051147 -13.357999801635742,-0.7350000143051147 -13.357999801635742,-0.7350000143051147"></path></g></g><g clip-path="url(#__lottie_element_2027)" transform="matrix(0.9212601184844971,0.38894709944725037,-0.38894709944725037,0.9212601184844971,193.21121215820312,-86.75674438476562)" opacity="1" style="display: block;"><g clip-path="url(#__lottie_element_2044)" transform="matrix(1,0,0,1,0,0)" opacity="1" style="display: block;"><g clip-path="url(#__lottie_element_2048)" transform="matrix(0.8516446352005005,-0.5241196751594543,0.5241196751594543,0.8516446352005005,-160.19448852539062,231.89527893066406)" opacity="1" style="display: block;"><g clip-path="url(#__lottie_element_2049)"><g transform="matrix(1,0,0,1,204.82501220703125,159.5159912109375)" opacity="1" style="display: block;"><g opacity="1" transform="matrix(1,0,0,1,218.26600646972656,154.66299438476562)"><path fill="rgb(255,255,255)" fill-opacity="1" d=" M51.3380012512207,5.116000175476074 C50.35200119018555,14.602999687194824 45.30099868774414,23.354000091552734 40.01499938964844,30.506999969482422 C29.52899932861328,44.698001861572266 13.569999694824219,52.99399948120117 -5.249000072479248,51.0359992980957 C-18.767000198364258,49.630001068115234 -30.51799964904785,43.11600112915039 -38.7869987487793,33.61199951171875 C-47.832000732421875,23.21500015258789 -52.70899963378906,9.237000465393066 -51.16999816894531,-5.551000118255615 C-49.74700164794922,-19.22100067138672 -42.970001220703125,-29.535999298095703 -33.29100036621094,-37.81800079345703 C-22.92799949645996,-46.685001373291016 -9.218999862670898,-52.99399948120117 5.418000221252441,-51.47100067138672 C20.551000595092773,-49.895999908447266 33.470001220703125,-41.922000885009766 41.766998291015625,-30.517000198364258 C48.98899841308594,-20.586999893188477 52.70899963378906,-8.057999610900879 51.3380012512207,5.116000175476074z"></path><path stroke-linecap="butt" stroke-linejoin="miter" fill-opacity="0" stroke-miterlimit="10" stroke="rgb(0,46,96)" stroke-opacity="1" stroke-width="5.139" d=" M51.3380012512207,5.116000175476074 C50.35200119018555,14.602999687194824 45.30099868774414,23.354000091552734 40.01499938964844,30.506999969482422 C29.52899932861328,44.698001861572266 13.569999694824219,52.99399948120117 -5.249000072479248,51.0359992980957 C-18.767000198364258,49.630001068115234 -30.51799964904785,43.11600112915039 -38.7869987487793,33.61199951171875 C-47.832000732421875,23.21500015258789 -52.70899963378906,9.237000465393066 -51.16999816894531,-5.551000118255615 C-49.74700164794922,-19.22100067138672 -42.970001220703125,-29.535999298095703 -33.29100036621094,-37.81800079345703 C-22.92799949645996,-46.685001373291016 -9.218999862670898,-52.99399948120117 5.418000221252441,-51.47100067138672 C20.551000595092773,-49.895999908447266 33.470001220703125,-41.922000885009766 41.766998291015625,-30.517000198364258 C48.98899841308594,-20.586999893188477 52.70899963378906,-8.057999610900879 51.3380012512207,5.116000175476074z"></path></g></g><g transform="matrix(1,0,0,1,397.12701416015625,278.0279846191406)" opacity="1" style="display: block;"><g opacity="1" transform="matrix(1,0,0,1,28.614999771118164,37.46699905395508)"><path fill="rgb(0,46,96)" fill-opacity="1" d=" M-2.2820000648498535,-25.253000259399414 C-8.638999938964844,-19.46500015258789 -20.635000228881836,-2.4089999198913574 -25.09600067138672,13.187000274658203 C-28.365999221801758,24.615999221801758 -19.084999084472656,37.21699905395508 -5.361000061035156,27.108999252319336 C7.13700008392334,17.90399932861328 17.447999954223633,-3.7809998989105225 19.514999389648438,-8.545000076293945 C28.365999221801758,-28.95199966430664 10.859999656677246,-37.21699905395508 -2.2820000648498535,-25.253000259399414z"></path></g></g></g></g><g transform="matrix(1,0,0,1,202.75,419.75)" opacity="1" style="display: block;"><g opacity="1" transform="matrix(1,0,0,1,0,0)"><path stroke-linecap="butt" stroke-linejoin="miter" fill-opacity="0" stroke-miterlimit="4" stroke="rgb(0,46,96)" stroke-opacity="1" stroke-width="5" d=" M212.5,-143 C209.75,-211.75 110.90699768066406,-209.0019989013672 111.75,-138.5 C112.5,-75.75 215.22799682617188,-74.80000305175781 212.5,-143z"></path></g></g></g></g><g clip-path="url(#__lottie_element_2031)" transform="matrix(0.8839288949966431,0.4676212966442108,-0.4676212966442108,0.8839288949966431,76.45774841308594,-182.4852294921875)" opacity="1" style="display: block;"><g clip-path="url(#__lottie_element_2061)" transform="matrix(1,0,0,1,0,0)" opacity="1" style="display: block;"><g clip-path="url(#__lottie_element_2065)" transform="matrix(0.8516446352005005,-0.5241196751594543,0.5241196751594543,0.8516446352005005,-160.19448852539062,231.89527893066406)" opacity="1" style="display: block;"><g clip-path="url(#__lottie_element_2066)"><g transform="matrix(1,0,0,1,204.82501220703125,159.5159912109375)" opacity="1" style="display: block;"><g opacity="1" transform="matrix(1,0,0,1,218.26600646972656,154.66299438476562)"><path fill="rgb(255,255,255)" fill-opacity="1" d=" M51.3380012512207,5.116000175476074 C50.35200119018555,14.602999687194824 45.30099868774414,23.354000091552734 40.01499938964844,30.506999969482422 C29.52899932861328,44.698001861572266 13.569999694824219,52.99399948120117 -5.249000072479248,51.0359992980957 C-18.767000198364258,49.630001068115234 -30.51799964904785,43.11600112915039 -38.7869987487793,33.61199951171875 C-47.832000732421875,23.21500015258789 -52.70899963378906,9.237000465393066 -51.16999816894531,-5.551000118255615 C-49.74700164794922,-19.22100067138672 -42.970001220703125,-29.535999298095703 -33.29100036621094,-37.81800079345703 C-22.92799949645996,-46.685001373291016 -9.218999862670898,-52.99399948120117 5.418000221252441,-51.47100067138672 C20.551000595092773,-49.895999908447266 33.470001220703125,-41.922000885009766 41.766998291015625,-30.517000198364258 C48.98899841308594,-20.586999893188477 52.70899963378906,-8.057999610900879 51.3380012512207,5.116000175476074z"></path><path stroke-linecap="butt" stroke-linejoin="miter" fill-opacity="0" stroke-miterlimit="10" stroke="rgb(0,46,96)" stroke-opacity="1" stroke-width="5.139" d=" M51.3380012512207,5.116000175476074 C50.35200119018555,14.602999687194824 45.30099868774414,23.354000091552734 40.01499938964844,30.506999969482422 C29.52899932861328,44.698001861572266 13.569999694824219,52.99399948120117 -5.249000072479248,51.0359992980957 C-18.767000198364258,49.630001068115234 -30.51799964904785,43.11600112915039 -38.7869987487793,33.61199951171875 C-47.832000732421875,23.21500015258789 -52.70899963378906,9.237000465393066 -51.16999816894531,-5.551000118255615 C-49.74700164794922,-19.22100067138672 -42.970001220703125,-29.535999298095703 -33.29100036621094,-37.81800079345703 C-22.92799949645996,-46.685001373291016 -9.218999862670898,-52.99399948120117 5.418000221252441,-51.47100067138672 C20.551000595092773,-49.895999908447266 33.470001220703125,-41.922000885009766 41.766998291015625,-30.517000198364258 C48.98899841308594,-20.586999893188477 52.70899963378906,-8.057999610900879 51.3380012512207,5.116000175476074z"></path></g></g><g transform="matrix(1,0,0,1,397.12701416015625,278.0279846191406)" opacity="1" style="display: block;"><g opacity="1" transform="matrix(1,0,0,1,28.614999771118164,37.46699905395508)"><path fill="rgb(0,46,96)" fill-opacity="1" d=" M-2.2820000648498535,-25.253000259399414 C-8.638999938964844,-19.46500015258789 -20.635000228881836,-2.4089999198913574 -25.09600067138672,13.187000274658203 C-28.365999221801758,24.615999221801758 -19.084999084472656,37.21699905395508 -5.361000061035156,27.108999252319336 C7.13700008392334,17.90399932861328 17.447999954223633,-3.7809998989105225 19.514999389648438,-8.545000076293945 C28.365999221801758,-28.95199966430664 10.859999656677246,-37.21699905395508 -2.2820000648498535,-25.253000259399414z"></path></g></g></g></g><g transform="matrix(1,0,0,1,202.75,419.75)" opacity="1" style="display: block;"><g opacity="1" transform="matrix(1,0,0,1,0,0)"><path stroke-linecap="butt" stroke-linejoin="miter" fill-opacity="0" stroke-miterlimit="4" stroke="rgb(0,46,96)" stroke-opacity="1" stroke-width="5" d=" M212.5,-143 C209.75,-211.75 110.90699768066406,-209.0019989013672 111.75,-138.5 C112.5,-75.75 215.22799682617188,-74.80000305175781 212.5,-143z"></path></g></g></g></g><g transform="matrix(0.9895811676979065,0.14397624135017395,-0.14397624135017395,0.9895811676979065,120.92929077148438,222.8181915283203)" opacity="1" style="display: block;"><g opacity="1" transform="matrix(1,0,0,1,51.87699890136719,84.99700164794922)"><path fill="rgb(66,97,237)" fill-opacity="1" d=" M-31.743000030517578,71.4209976196289 C-42.196998596191406,12.305000305175781 -39.73400115966797,-19.3799991607666 -37.236000061035156,-48.27000045776367 C-36.10900115966797,-61.305999755859375 -25.493999481201172,-71.4209976196289 -12.42199993133545,-70.79199981689453 C0.6489999890327454,-70.15899658203125 7.89300012588501,-58.87699890136719 10.10099983215332,-45.97800064086914 C15.86299991607666,-12.310999870300293 25.554000854492188,16.09000015258789 40.96099853515625,53.78300094604492 C40.96099853515625,53.78300094604492 -31.743000030517578,71.4209976196289 -31.743000030517578,71.4209976196289z"></path></g><g opacity="1" transform="matrix(1,0,0,1,36.17300033569336,50.01599884033203)"><path fill="rgb(255,230,168)" fill-opacity="1" d=" M14.593999862670898,-1.2769999504089355 C15.222000122070312,5.8979997634887695 9.197999954223633,12.28600025177002 1.1369999647140503,12.991999626159668 C-6.922999858856201,13.696999549865723 -13.965999603271484,8.45199966430664 -14.593999862670898,1.2769999504089355 C-15.222000122070312,-5.8979997634887695 -9.197999954223633,-12.286999702453613 -1.1369999647140503,-12.991999626159668 C6.922999858856201,-13.696999549865723 13.965999603271484,-8.45199966430664 14.593999862670898,-1.2769999504089355z"></path></g><g opacity="1" transform="matrix(1,0,0,1,37.229000091552734,29.6299991607666)"><path fill="rgb(255,230,168)" fill-opacity="1" d=" M5.507999897003174,-0.4819999933242798 C5.744999885559082,2.2260000705718994 3.4700000286102295,4.63700008392334 0.42800000309944153,4.9029998779296875 C-2.61299991607666,5.169000148773193 -5.270999908447266,3.190000057220459 -5.507999897003174,0.4819999933242798 C-5.744999885559082,-2.2260000705718994 -3.4709999561309814,-4.63700008392334 -0.4300000071525574,-4.9029998779296875 C2.611999988555908,-5.169000148773193 5.270999908447266,-3.190000057220459 5.507999897003174,-0.4819999933242798z"></path></g><g opacity="1" transform="matrix(1,0,0,1,24.812999725341797,33.79399871826172)"><path fill="rgb(255,230,168)" fill-opacity="1" d=" M4.295000076293945,-2.0460000038146973 C5.301000118255615,0.06499999761581421 4.191999912261963,2.693000078201294 1.8200000524520874,3.822999954223633 C-0.5509999990463257,4.952000141143799 -3.2890000343322754,4.156000137329102 -4.295000076293945,2.0450000762939453 C-5.301000118255615,-0.06700000166893005 -4.192999839782715,-2.694000005722046 -1.8209999799728394,-3.822999954223633 C0.550000011920929,-4.953000068664551 3.2890000343322754,-4.1570000648498535 4.295000076293945,-2.0460000038146973z"></path></g><g opacity="1" transform="matrix(1,0,0,1,49.41899871826172,34.637001037597656)"><path fill="rgb(255,230,168)" fill-opacity="1" d=" M4.020999908447266,2.5399999618530273 C2.7720000743865967,4.51800012588501 -0.04100000113248825,4.982999801635742 -2.26200008392334,3.5799999237060547 C-4.482999801635742,2.177000045776367 -5.269999980926514,-0.5640000104904175 -4.020999908447266,-2.5409998893737793 C-2.7720000743865967,-4.51800012588501 0.04100000113248825,-4.982999801635742 2.26200008392334,-3.5799999237060547 C4.482999801635742,-2.177000045776367 5.269999980926514,0.5630000233650208 4.020999908447266,2.5399999618530273z"></path></g><g opacity="1" transform="matrix(1,0,0,1,53.882999420166016,86.05799865722656)"><path stroke-linecap="round" stroke-linejoin="round" fill-opacity="0" stroke="rgb(0,46,96)" stroke-opacity="1" stroke-width="5.41" d=" M-31.76799964904785,71.73300170898438 C-42.6150016784668,23.89699935913086 -46.06700134277344,-25.875 -39.630001068115234,-49 C-36.12200164794922,-61.604000091552734 -26.260000228881836,-71.37699890136719 -13.187000274658203,-70.74800109863281 C-0.11699999868869781,-70.11499786376953 8.232999801635742,-58.9739990234375 9.333999633789062,-45.933998107910156 C11.725000381469727,-17.608999252319336 11.465999603271484,18.808000564575195 39.305999755859375,47.37799835205078"></path></g></g><g transform="matrix(0.8240209817886353,0.5474160313606262,-0.47264766693115234,0.711472749710083,305.2095031738281,-166.64141845703125)" opacity="1" style="display: block;"><g opacity="1" transform="matrix(1,0,0,1,251.39199829101562,399.0270080566406)"><path fill="rgb(255,100,111)" fill-opacity="1" d=" M0.03700000047683716,0.10000000149011612 C0.024000000208616257,0.019999999552965164 0.003000000026077032,-0.04899999871850014 -0.035999998450279236,-0.10000000149011612 C-0.010999999940395355,-0.03099999949336052 0.013000000268220901,0.032999999821186066 0.03700000047683716,0.10000000149011612z"></path></g><g opacity="1" transform="matrix(0.9618600010871887,0,0,0.9993500113487244,284.99200439453125,436.2749938964844)"><path fill="rgb(255,100,111)" fill-opacity="1" d=" M14.449000358581543,-10.637999534606934 C14.474472999572754,-11.151837348937988 9.142000198364258,-13.597999572753906 8.677000045776367,-13.897000312805176 C3.763000011444092,-17.055999755859375 2.7639999389648438,-19.488000869750977 1.3509999513626099,-23.37700080871582 C1.5119999647140503,-22.415000915527344 -0.057999998331069946,-19.533000946044922 -0.36000001430511475,-18.95199966430664 C-1.1690000295639038,-17.395000457763672 -2.2119998931884766,-15.996999740600586 -3.4210000038146973,-14.718999862670898 C-4.988999843597412,-13.062999725341797 -11.746000289916992,-13.118000030517578 -11.746000289916992,-13.118000030517578 C-12.17848014831543,17.497299194335938 13.566269874572754,17.942590713500977 14.449000358581543,-10.637999534606934z"></path></g><g opacity="1" transform="matrix(1,0,0,1,579.2429809570312,503.47100830078125)"><path stroke-linecap="round" stroke-linejoin="round" fill-opacity="0" stroke="rgb(0,46,96)" stroke-opacity="1" stroke-width="6.689" d="M0 0"></path></g></g><g transform="matrix(1,0,0,1,311.8600158691406,267.7740173339844)" opacity="1" style="display: block;"><g opacity="1" transform="matrix(1,0,0,1,29.097999572753906,23.325000762939453)"><path stroke-linecap="round" stroke-linejoin="round" fill-opacity="0" stroke="rgb(0,46,96)" stroke-opacity="1" stroke-width="5.177" d=" M-16.155000686645508,-10.383000373840332 C-10.928999900817871,1.1460000276565552 2.572000026702881,-4.644999980926514 3.5889999866485596,-6.835000038146973 C1.5529999732971191,2.361999988555908 8.890000343322754,10.383000373840332 16.155000686645508,9.755000114440918"></path></g></g></g></g></g><g transform="matrix(1,0,0,1,298,421)" opacity="1" style="display: none;"><g opacity="1" transform="matrix(1,0,0,1,0,0)"><path stroke-linecap="butt" stroke-linejoin="miter" fill-opacity="0" stroke-miterlimit="4" stroke="rgb(0,46,96)" stroke-opacity="1" stroke-width="3" d="M0 0"></path></g></g><g transform="matrix(1,0,0,1,298,421)" opacity="1" style="display: none;"><g opacity="1" transform="matrix(1,0,0,1,0,0)"><path stroke-linecap="butt" stroke-linejoin="miter" fill-opacity="0" stroke-miterlimit="4" stroke="rgb(0,46,96)" stroke-opacity="1" stroke-width="6" d=" M-64,377"></path></g></g><g transform="matrix(1,0,0,1,-8,319)" opacity="1" style="display: none;"><g opacity="1" transform="matrix(1,0,0,1,297.9259948730469,429.6400146484375)"><path stroke-linecap="round" stroke-linejoin="round" fill-opacity="0" stroke="rgb(0,46,96)" stroke-opacity="1" stroke-width="5" d=" M-212.656005859375,-18.23699951171875 C-212.656005859375,1.9079999923706055 -118.5510025024414,18.238000869750977 0,18.238000869750977 C118.552001953125,18.238000869750977 212.656005859375,1.9079999923706055 212.656005859375,-18.23699951171875"></path></g></g></g><g clip-path="url(#__lottie_element_1904)" transform="matrix(1.6011899709701538,0,0,1.6011899709701538,-63.160614013671875,256.50311279296875)" opacity="1" style="display: block;"><g transform="matrix(1,0,0,1,84.83600616455078,405.73199462890625)" opacity="1" style="display: none;"><g opacity="1" transform="matrix(1,0,0,1,102.72000122070312,17.83799934387207)"><path fill="rgb(0,46,96)" fill-opacity="1" d=" M-0.5099999904632568,-16.054000854492188 C-65.16600036621094,-14.29800033569336 -102.47000122070312,-0.6949999928474426 -102.3759994506836,2.7780001163482666 C-102.13500213623047,11.644000053405762 -56.137001037597656,17.58799934387207 0.3630000054836273,16.05299949645996 C56.862998962402344,14.519000053405762 102.47100067138672,6.089000225067139 102.2300033569336,-2.7780001163482666 C101.98999786376953,-11.644000053405762 55.9900016784668,-17.58799934387207 -0.5099999904632568,-16.054000854492188z"></path></g></g><g transform="matrix(1,0,0,1,138.8889923095703,59.03499984741211)" opacity="1" style="display: none;"><g opacity="1" transform="matrix(1,0,0,1,72.41200256347656,11.727999687194824)"><path fill="rgb(0,46,96)" fill-opacity="1" d=" M-0.052000001072883606,-11.321000099182129 C-45.64799880981445,-11.142000198364258 -72.16200256347656,-2.1659998893737793 -72.1520004272461,0.28299999237060547 C-72.12799835205078,6.534999847412109 -39.80699920654297,11.477999687194824 0.03700000047683716,11.321999549865723 C39.88199996948242,11.164999961853027 72.16200256347656,5.96999979019165 72.13700103759766,-0.28200000524520874 C72.11299896240234,-6.534999847412109 39.792999267578125,-11.477999687194824 -0.052000001072883606,-11.321000099182129z"></path></g></g><g transform="matrix(1,0,0,1,49.6199951171875,50.725006103515625)" opacity="1" style="display: none;"><g opacity="1" transform="matrix(1,0,0,1,182.01699829101562,130.6739959716797)"><path fill="rgb(66,97,237)" fill-opacity="1" d=" M0.7490000128746033,107.63800048828125 C-20.05500030517578,104.87000274658203 -42.4630012512207,94.927001953125 -59.82500076293945,80.50199890136719 C-78.79199981689453,64.74400329589844 -91.26200103759766,45.45000076293945 -97.87799835205078,22.690000534057617 C-105.0250015258789,-1.9010000228881836 -102.59300231933594,-31.948999404907227 -92.6259994506836,-57.069000244140625 C-84.02999877929688,-78.73699951171875 -69.33499908447266,-99.42400360107422 -48.82899856567383,-118.7750015258789 C-46.20899963378906,-121.24700164794922 22.052000045776367,-120.23500061035156 17.729000091552734,-116.927001953125 C15.718000411987305,-115.38800048828125 -3.8239998817443848,-99.10199737548828 -5.922999858856201,-97.21600341796875 C-32.0099983215332,-73.7750015258789 -63.00600051879883,-25.24799919128418 -53.81100082397461,6.382999897003174 C-49.766998291015625,20.297000885009766 -41.00199890136719,33.39099884033203 -29.131999969482422,43.25299835205078 C-17.740999221801758,52.71699905395508 -4.196000099182129,57.85599899291992 8.791999816894531,59.20199966430664 C22.488000869750977,60.625999450683594 35.301998138427734,54.94499969482422 35.487998962402344,42.83300018310547 C35.678001403808594,30.43400001525879 73.1520004272461,19.922000885009766 84.09600067138672,25.759000778198242 C95.03900146484375,31.594999313354492 105.0250015258789,56.3120002746582 98.8290023803711,67.05400085449219 C67.56800079345703,121.24700164794922 1.7000000476837158,107.76499938964844 0.7490000128746033,107.63800048828125z"></path></g><g opacity="1" transform="matrix(1,0,0,1,189.6999969482422,130.31900024414062)"><path fill="rgb(72,148,239)" fill-opacity="1" d=" M-6.934000015258789,107.99299621582031 C-27.738000869750977,105.2249984741211 -50.14500045776367,95.28199768066406 -67.50700378417969,80.85700225830078 C-86.4739990234375,65.0989990234375 -83.5780029296875,45.80500030517578 -90.19400024414062,23.045000076293945 C-97.34200286865234,-1.5460000038146973 -88.78900146484375,-32.95800018310547 -75.90299987792969,-56.7140007019043 C-55.191001892089844,-94.89800262451172 -26.45400047302246,-121.60199737548828 -12.730999946594238,-119.68699645996094 C4.369999885559082,-117.29900360107422 12.256999969482422,-118.26300048828125 10.045999526977539,-116.5719985961914 C8.03499984741211,-115.03299713134766 -11.505999565124512,-98.74700164794922 -13.604999542236328,-96.86100006103516 C-39.69200134277344,-73.41999816894531 -70.68800354003906,-24.89299964904785 -61.49300003051758,6.73799991607666 C-57.44900131225586,20.652000427246094 -48.683998107910156,33.74599838256836 -36.81399917602539,43.608001708984375 C-25.42300033569336,53.071998596191406 -11.878999710083008,58.21099853515625 1.1089999675750732,59.55699920654297 C14.805000305175781,60.98099899291992 27.618999481201172,55.29999923706055 27.80500030517578,43.1879997253418 C27.9950008392334,30.788999557495117 65.46900177001953,20.277000427246094 76.41300201416016,26.11400032043457 C87.35600280761719,31.950000762939453 97.34200286865234,56.66699981689453 91.14600372314453,67.40899658203125 C59.8849983215332,121.60199737548828 -5.982999801635742,108.12000274658203 -6.934000015258789,107.99299621582031z"></path></g><g opacity="1" transform="matrix(1,0,0,1,182.01699829101562,130.6739959716797)"><path stroke-linecap="butt" stroke-linejoin="miter" fill-opacity="0" stroke-miterlimit="10" stroke="rgb(0,46,96)" stroke-opacity="1" stroke-width="3.771" d=" M0.7490000128746033,107.63800048828125 C-20.05500030517578,104.87000274658203 -42.4630012512207,94.927001953125 -59.82500076293945,80.50199890136719 C-78.79199981689453,64.74400329589844 -91.26200103759766,45.45000076293945 -97.87799835205078,22.690000534057617 C-105.0250015258789,-1.9010000228881836 -102.59300231933594,-31.948999404907227 -92.6259994506836,-57.069000244140625 C-84.02999877929688,-78.73699951171875 -69.33499908447266,-99.42400360107422 -48.82899856567383,-118.7750015258789 C-46.20899963378906,-121.24700164794922 22.052000045776367,-120.23500061035156 17.729000091552734,-116.927001953125 C15.718000411987305,-115.38800048828125 -3.8239998817443848,-99.10199737548828 -5.922999858856201,-97.21600341796875 C-32.0099983215332,-73.7750015258789 -63.00600051879883,-25.24799919128418 -53.81100082397461,6.382999897003174 C-49.766998291015625,20.297000885009766 -41.00199890136719,33.39099884033203 -29.131999969482422,43.25299835205078 C-17.740999221801758,52.71699905395508 -4.196000099182129,57.85599899291992 8.791999816894531,59.20199966430664 C22.488000869750977,60.625999450683594 35.301998138427734,54.94499969482422 35.487998962402344,42.83300018310547 C35.678001403808594,30.43400001525879 73.1520004272461,19.922000885009766 84.09600067138672,25.759000778198242 C95.03900146484375,31.594999313354492 105.0250015258789,56.3120002746582 98.8290023803711,67.05400085449219 C67.56800079345703,121.24700164794922 1.7000000476837158,107.76499938964844 0.7490000128746033,107.63800048828125z"></path></g><g opacity="1" transform="matrix(1,0,0,1,152.95199584960938,230.9530029296875)"><path fill="rgb(66,97,237)" fill-opacity="1" d=" M-83.75499725341797,143.95700073242188 C-112.57099914550781,72.8219985961914 -130.07200622558594,-9.678000450134277 -71.46900177001953,-98.18699645996094 C-55.979000091552734,-121.58100128173828 -28.881000518798828,-139.16900634765625 -5.630000114440918,-149.9669952392578 C16.423999786376953,-160.20799255371094 40.183998107910156,-163.51199340820312 63.08000183105469,-159.5290069580078 C80.53800201416016,-156.49000549316406 96.5510025024414,-149.23599243164062 109.38600158691406,-138.54800415039062 C124.09600067138672,-126.3010025024414 134.0070037841797,-110.21099853515625 138.05299377441406,-92.01899719238281 C143.46499633789062,-67.68099975585938 133.14100646972656,-36.03799819946289 118.0270004272461,-19.756999969482422 C101.7020034790039,-2.1700000762939453 70.95899963378906,-22.57200050354004 64.4260025024414,-45.33399963378906 C67.59300231933594,-53.529998779296875 64.74199676513672,-72.39800262451172 40.242000579833984,-70.53299713134766 C34.19900131225586,-70.072998046875 19.325000762939453,-67.15299987792969 12.253000259399414,-48.97700119018555 C-12.166999816894531,13.793000221252441 13.428000450134277,73.8219985961914 47.21099853515625,148.39100646972656 C51.07500076293945,156.92100524902344 -75.59200286865234,164.10699462890625 -83.75499725341797,143.95700073242188z"></path></g><g opacity="1" transform="matrix(1,0,0,1,220.59300231933594,189.2899932861328)"><path fill="rgb(72,148,239)" fill-opacity="1" d=" M53.612998962402344,13.277000427246094 C37.018001556396484,42.667999267578125 1.9290000200271606,50.60100173950195 -23.961999893188477,49.290000915527344 C-29.599000930786133,49.005001068115234 -52.66299819946289,45.667999267578125 -65.47000122070312,39.96900177001953 C-66.49600219726562,24.533000946044922 -61.152000427246094,9.045999526977539 -56.00600051879883,-5.544000148773193 C-40.957000732421875,3.7309999465942383 -4.269000053405762,7.980000019073486 -1.9670000076293945,-13.35200023651123 C-1.7619999647140503,-15.253000259399414 -3.25600004196167,-17.207000732421875 -3.928999900817871,-18.996999740600586 C-5.494999885559082,-23.167999267578125 -10.295999526977539,-25.03499984741211 -14.647000312805176,-25.992000579833984 C-22.000999450683594,-27.608999252319336 -27.398000717163086,-28.868999481201172 -42.95600128173828,-24.753000259399414 C-38.358001708984375,-29.908000946044922 -28.363000869750977,-34.97600173950195 -23.562999725341797,-36.3650016784668 C25.658000946044922,-50.60100173950195 66.49700164794922,-9.541999816894531 53.612998962402344,13.277000427246094z"></path></g><g opacity="1" transform="matrix(0.9959499835968018,0,0,1,151.822998046875,228.81399536132812)"><path stroke-linecap="round" stroke-linejoin="round" fill-opacity="0" stroke="rgb(0,46,96)" stroke-opacity="1" stroke-width="3.771" d=" M68.77799987792969,-45.40800094604492 C65.44100189208984,-61.57099914550781 55.5890007019043,-69.48100280761719 41.31100082397461,-68.39399719238281 C35.26900100708008,-67.93399810791016 20.395000457763672,-65.01499938964844 13.322999954223633,-46.8390007019043 C-11.097000122070312,15.930999755859375 13.579999923706055,80.48600006103516 48.46099853515625,150.0590057373047 C52.65700149536133,158.4290008544922 -71.7969970703125,161.37399291992188 -77.62699890136719,153.44900512695312 C-93.04100036621094,132.49899291992188 -142.39599609375,11.076000213623047 -70.39900207519531,-96.0479965209961 C-54.74800109863281,-119.33499908447266 -27.809999465942383,-137.02999877929688 -4.559999942779541,-147.8280029296875 C17.493999481201172,-158.06900024414062 41.25299835205078,-161.37399291992188 64.14900207519531,-157.39100646972656 C81.60700225830078,-154.3520050048828 97.62000274658203,-147.0970001220703 110.45500183105469,-136.40899658203125 C125.16400146484375,-124.16200256347656 135.0760040283203,-108.0719985961914 139.1219940185547,-89.87999725341797 C142.39599609375,-75.15899658203125 140.4290008544922,-56.98099899291992 134.53500366210938,-41.3120002746582 C133.97500610351562,-39.82099914550781 127.17400360107422,-23.249000549316406 113.16999816894531,-11.1899995803833"></path></g></g><g transform="matrix(0.5422199964523315,0,0,0.5422199964523315,131.34197998046875,336.7000732421875)" opacity="0.4536582614250051" style="display: none;"><g opacity="1" transform="matrix(1,0,0,1,-143.62100219726562,136.87899780273438)"><path stroke-linecap="butt" stroke-linejoin="miter" fill-opacity="0" stroke-miterlimit="4" stroke="rgb(66,97,237)" stroke-opacity="1" stroke-width="10" d=" M0,-14.378999710083008 C7.935770034790039,-14.378999710083008 14.378999710083008,-7.935770034790039 14.378999710083008,0 C14.378999710083008,7.935770034790039 7.935770034790039,14.378999710083008 0,14.378999710083008 C-7.935770034790039,14.378999710083008 -14.378999710083008,7.935770034790039 -14.378999710083008,0 C-14.378999710083008,-7.935770034790039 -7.935770034790039,-14.378999710083008 0,-14.378999710083008z"></path></g></g><g style="display: none;" transform="matrix(0.5254600048065186,0,0,0.5254600048065186,384.37554931640625,290.8265686035156)" opacity="0.000975414978204583"><g opacity="1" transform="matrix(1,0,0,1,-143.62100219726562,136.87899780273438)"><path stroke-linecap="butt" stroke-linejoin="miter" fill-opacity="0" stroke-miterlimit="4" stroke="rgb(66,97,237)" stroke-opacity="1" stroke-width="10" d=" M0,-14.378999710083008 C7.935770034790039,-14.378999710083008 14.378999710083008,-7.935770034790039 14.378999710083008,0 C14.378999710083008,7.935770034790039 7.935770034790039,14.378999710083008 0,14.378999710083008 C-7.935770034790039,14.378999710083008 -14.378999710083008,7.935770034790039 -14.378999710083008,0 C-14.378999710083008,-7.935770034790039 -7.935770034790039,-14.378999710083008 0,-14.378999710083008z"></path></g></g><g transform="matrix(1.0148899555206299,0,0,1.0148899555206299,219.00682067871094,273.7054443359375)" opacity="0.4536582614250051" style="display: none;"><g opacity="1" transform="matrix(1,0,0,1,0,0)"><path stroke-linecap="butt" stroke-linejoin="miter" fill-opacity="0" stroke-miterlimit="4" stroke="rgb(66,97,237)" stroke-opacity="1" stroke-width="5" d=" M-156.25,101 C-156.25,101 -156,120.25 -156,120.25 C-156,120.25 -139.25,107 -139.25,107 C-139.25,107 -156.25,101 -156.25,101z"></path></g><g opacity="1" transform="matrix(1,0,0,1,0,0)"><path stroke-linecap="butt" stroke-linejoin="miter" fill-opacity="0" stroke-miterlimit="4" stroke="rgb(66,97,237)" stroke-opacity="1" stroke-width="5" d="M0 0"></path></g></g><g transform="matrix(0.6437671184539795,0.18321183323860168,-0.21315452456474304,0.7489793300628662,404.45074462890625,256.7608642578125)" opacity="0.4536582614250051" style="display: none;"><g opacity="1" transform="matrix(1,0,0,1,-192.23300170898438,144.77699279785156)"><path stroke-linecap="butt" stroke-linejoin="miter" fill-opacity="0" stroke-miterlimit="4" stroke="rgb(66,97,237)" stroke-opacity="1" stroke-width="8" d=" M6.017000198364258,-14.760499954223633 C6.017000198364258,-14.760499954223633 6.017000198364258,14.760499954223633 6.017000198364258,14.760499954223633 C6.017000198364258,18.081281661987305 3.320782423019409,20.77750015258789 0,20.77750015258789 C0,20.77750015258789 0,20.77750015258789 0,20.77750015258789 C-3.320782423019409,20.77750015258789 -6.017000198364258,18.081281661987305 -6.017000198364258,14.760499954223633 C-6.017000198364258,14.760499954223633 -6.017000198364258,-14.760499954223633 -6.017000198364258,-14.760499954223633 C-6.017000198364258,-18.081281661987305 -3.320782423019409,-20.77750015258789 0,-20.77750015258789 C0,-20.77750015258789 0,-20.77750015258789 0,-20.77750015258789 C3.320782423019409,-20.77750015258789 6.017000198364258,-18.081281661987305 6.017000198364258,-14.760499954223633z"></path></g></g><g transform="matrix(0.9237599968910217,0,0,0.9864299893379211,231.88670349121094,235.44180297851562)" opacity="0.000975414978204583" style="display: none;"><g opacity="1" transform="matrix(1,0,0,1,54.5359992980957,113.0510025024414)"><path stroke-linecap="butt" stroke-linejoin="miter" fill-opacity="0" stroke-miterlimit="4" stroke="rgb(66,97,237)" stroke-opacity="1" stroke-width="5" d=" M6.285999774932861,-6.801000118255615 C6.285999774932861,-6.801000118255615 6.285999774932861,6.801000118255615 6.285999774932861,6.801000118255615 C6.285999774932861,6.801000118255615 -6.285999774932861,6.801000118255615 -6.285999774932861,6.801000118255615 C-6.285999774932861,6.801000118255615 -6.285999774932861,-6.801000118255615 -6.285999774932861,-6.801000118255615 C-6.285999774932861,-6.801000118255615 6.285999774932861,-6.801000118255615 6.285999774932861,-6.801000118255615z"></path></g></g></g><g clip-path="url(#__lottie_element_1908)" transform="matrix(1.9304699897766113,0,0,1.9304699897766113,50.6207275390625,-93.30874633789062)" opacity="1" style="display: block;"><g transform="matrix(0.5788781642913818,0,0,0.5788781642913818,396.2007751464844,126.72673034667969)" opacity="1" style="display: block;"><g opacity="1" transform="matrix(1,0,0,1,8.928000450134277,47.05699920654297)"><path fill="rgb(0,46,96)" fill-opacity="1" d=" M1.0989999771118164,-46.71799850463867 C5.556000232696533,-46.80699920654297 8.678000450134277,-25.961999893188477 8.071000099182129,-0.1599999964237213 C7.4629998207092285,25.642000198364258 3.3580000400543213,46.630001068115234 -1.0989999771118164,46.71900177001953 C-5.556000232696533,46.80699920654297 -8.678000450134277,25.96299934387207 -8.071000099182129,0.16099999845027924 C-7.464000225067139,-25.641000747680664 -3.3580000400543213,-46.630001068115234 1.0989999771118164,-46.71799850463867z"></path></g></g><g transform="matrix(0,0,0,0,264.7200012207031,155.86599731445312)" opacity="1" style="display: block;"><g opacity="1" transform="matrix(1,0,0,1,8.347999572753906,47.180999755859375)"><path fill="rgb(0,46,96)" fill-opacity="1" d=" M-0.06199999898672104,-46.731998443603516 C4.392000198364258,-46.930999755859375 8.029999732971191,-26.170000076293945 8.064000129699707,-0.3610000014305115 C8.097999572753906,25.447999954223633 4.517000198364258,46.53200149536133 0.06300000101327896,46.73099899291992 C-4.390999794006348,46.93000030517578 -8.029999732971191,26.170000076293945 -8.064000129699707,0.3610000014305115 C-8.097999572753906,-25.44700050354004 -4.514999866485596,-46.53200149536133 -0.06199999898672104,-46.731998443603516z"></path></g></g><g clip-path="url(#__lottie_element_1922)" transform="matrix(1,0,0,1,111.25,-6)" opacity="1" style="display: none;"><g clip-path="url(#__lottie_element_1923)"><g clip-path="url(#__lottie_element_1926)" transform="matrix(0.5082331895828247,-0.2850438952445984,0.2850438952445984,0.5082331895828247,-111.2288818359375,222.05230712890625)" opacity="1" style="display: block;"><g transform="matrix(0.9760993123054504,-0.29928064346313477,0.32121920585632324,1.0476516485214233,125.12084197998047,123.67457580566406)" opacity="1" style="display: block;"><g opacity="1" transform="matrix(1,0,0,1,12.97700023651123,12.161999702453613)"><path fill="rgb(255,196,33)" fill-opacity="1" d=" M3.7019999027252197,-7.4029998779296875 C4.38100004196167,-7.7870001792907715 5.119999885559082,-7.623000144958496 5.416999816894531,-6.985000133514404 C7.468999862670898,-2.566999912261963 8.60200023651123,1.9639999866485596 8.449000358581543,7.785999774932861 C8.449000358581543,7.785999774932861 -8.60200023651123,3.390000104904175 -8.60200023651123,3.390000104904175 C-4.677000045776367,-2.1989998817443848 -0.4020000100135803,-5.086999893188477 3.7019999027252197,-7.4029998779296875z"></path><path stroke-linecap="round" stroke-linejoin="round" fill-opacity="0" stroke="rgb(27,46,96)" stroke-opacity="1" stroke-width="3" d=" M3.7019999027252197,-7.4029998779296875 C4.38100004196167,-7.7870001792907715 5.119999885559082,-7.623000144958496 5.416999816894531,-6.985000133514404 C7.468999862670898,-2.566999912261963 8.60200023651123,1.9639999866485596 8.449000358581543,7.785999774932861 C8.449000358581543,7.785999774932861 -8.60200023651123,3.390000104904175 -8.60200023651123,3.390000104904175 C-4.677000045776367,-2.1989998817443848 -0.4020000100135803,-5.086999893188477 3.7019999027252197,-7.4029998779296875z"></path></g></g><g transform="matrix(0.944502592086792,0.3285039961338043,-0.3285039961338043,0.944502592086792,492.290283203125,99.12825012207031)" opacity="1" style="display: block;"><g opacity="1" transform="matrix(1,0,0,1,18.770999908447266,18.31800079345703)"><path fill="rgb(66,97,237)" fill-opacity="1" d=" M-9.27299976348877,14.40999984741211 C-9.262999534606934,16.75200080871582 -2.2890000343322754,26.243000030517578 0.29600000381469727,23.770000457763672 C3.3499999046325684,20.847999572753906 3.927999973297119,18.913000106811523 0.23100000619888306,10.489999771118164 C-3.0179998874664307,3.0889999866485596 -10.319999694824219,-0.746999979019165 -14.395999908447266,-0.6110000014305115"></path><path stroke-linecap="round" stroke-linejoin="round" fill-opacity="0" stroke="rgb(0,46,96)" stroke-opacity="1" stroke-width="3" d=" M-9.27299976348877,14.40999984741211 C-9.262999534606934,16.75200080871582 -2.2890000343322754,26.243000030517578 0.29600000381469727,23.770000457763672 C3.3499999046325684,20.847999572753906 3.927999973297119,18.913000106811523 0.23100000619888306,10.489999771118164 C-3.0179998874664307,3.0889999866485596 -10.319999694824219,-0.746999979019165 -14.395999908447266,-0.6110000014305115"></path></g></g><g transform="matrix(0.8313629627227783,-0.555729866027832,0.555729866027832,0.8313629627227783,106.45716857910156,171.6311492919922)" opacity="1" style="display: block;"><g opacity="1" transform="matrix(1,0,0,1,29.976999282836914,14.708999633789062)"><path fill="rgb(255,196,33)" fill-opacity="1" d=" M20.908000946044922,6.651000022888184 C22.590999603271484,6.6620001792907715 22.961999893188477,6.449999809265137 23.51300048828125,6.135000228881836 C24.87299919128418,5.359000205993652 25.60300064086914,3.802000045776367 25.326000213623047,2.263000011444092 C25.24799919128418,1.8289999961853027 24.722999572753906,-0.3529999852180481 22.062999725341797,-0.7879999876022339 C21.56599998474121,-0.8690000176429749 21.077999114990234,-0.847000002861023 20.617000579833984,-0.7369999885559082 C14.456000328063965,-0.8389999866485596 -6.493000030517578,-4.1479997634887695 -18.093000411987305,-8.380999565124512 C-23.444000244140625,-10.333999633789062 -25.60300064086914,-3.803999900817871 -22.323999404907227,-1.0140000581741333 C-16.503000259399414,3.940999984741211 -11.425000190734863,6.877999782562256 2.8929998874664307,9.35099983215332 C8.583000183105469,10.333999633789062 12.206000328063965,6.019999980926514 15.381999969482422,6.298999786376953 C18.093000411987305,6.539000034332275 19.790000915527344,6.644000053405762 20.908000946044922,6.651000022888184z"></path><path stroke-linecap="round" stroke-linejoin="round" fill-opacity="0" stroke="rgb(27,46,96)" stroke-opacity="1" stroke-width="3" d=" M20.908000946044922,6.651000022888184 C22.590999603271484,6.6620001792907715 22.961999893188477,6.449999809265137 23.51300048828125,6.135000228881836 C24.87299919128418,5.359000205993652 25.60300064086914,3.802000045776367 25.326000213623047,2.263000011444092 C25.24799919128418,1.8289999961853027 24.722999572753906,-0.3529999852180481 22.062999725341797,-0.7879999876022339 C21.56599998474121,-0.8690000176429749 21.077999114990234,-0.847000002861023 20.617000579833984,-0.7369999885559082 C14.456000328063965,-0.8389999866485596 -6.493000030517578,-4.1479997634887695 -18.093000411987305,-8.380999565124512 C-23.444000244140625,-10.333999633789062 -25.60300064086914,-3.803999900817871 -22.323999404907227,-1.0140000581741333 C-16.503000259399414,3.940999984741211 -11.425000190734863,6.877999782562256 2.8929998874664307,9.35099983215332 C8.583000183105469,10.333999633789062 12.206000328063965,6.019999980926514 15.381999969482422,6.298999786376953 C18.093000411987305,6.539000034332275 19.790000915527344,6.644000053405762 20.908000946044922,6.651000022888184z"></path></g></g><g transform="matrix(1,0,0,1,114.45001220703125,69.51399993896484)" opacity="1" style="display: block;"><g opacity="1" transform="matrix(1,0,0,1,156.77699279785156,75.54100036621094)"><path fill="rgb(66,97,237)" fill-opacity="1" d=" M219.37600708007812,-32.30099868774414 C210.7729949951172,-40.30500030517578 196.86900329589844,-43.50299835205078 183.75100708007812,-48.71900177001953 C78.52300262451172,-90.55500030517578 -56.23500061035156,-58.03499984741211 -120.5780029296875,-16.554000854492188 C-132.5919952392578,-8.809000015258789 -137.5050048828125,-2.575000047683716 -141.822998046875,11.055000305175781 C-146.14100646972656,24.684999465942383 -133.71099853515625,47.23500061035156 -102.46299743652344,43.797000885009766 C-99.06600189208984,43.42300033569336 -73.59200286865234,29.284000396728516 -70.46199798583984,28.006000518798828 C44.77399826049805,-19.055999755859375 64.33899688720703,-16.124000549316406 189.45899963378906,9.574999809265137 C227.7729949951172,17.44499969482422 226.45199584960938,-25.716999053955078 219.37600708007812,-32.30099868774414z"></path></g><g opacity="1" transform="matrix(1,0,0,1,157.43299865722656,77.30000305175781)"><path fill="rgb(72,148,239)" fill-opacity="1" d=" M211.9409942626953,2.947999954223633 C190.8679962158203,8.935999870300293 143.3679962158203,-28.812999725341797 64.9520034790039,-26.77400016784668 C-25.131999969482422,-23.312999725341797 -96.41699981689453,37.8129997253418 -99.71800231933594,39.19599914550781 C-111.63200378417969,44.18600082397461 -119.88200378417969,40.43600082397461 -133.76699829101562,33.99599838256836 C-92.38200378417969,57.68600082397461 -94.43599700927734,23.263999938964844 -26.035999298095703,8.706000328063965 C70.11900329589844,-24.062999725341797 113.11799621582031,-4.314000129699707 199.9409942626953,8.406000137329102 C204.8679962158203,7.185999870300293 214.11300659179688,2.3329999446868896 211.9409942626953,2.947999954223633z"></path></g><g opacity="1" transform="matrix(1,0,0,1,156.80499267578125,72.13700103759766)"><path stroke-linecap="butt" stroke-linejoin="miter" fill-opacity="0" stroke-miterlimit="10" stroke="rgb(0,46,96)" stroke-opacity="1" stroke-width="3" d=" M199.64999389648438,14.241999626159668 C219.56100463867188,13.861000061035156 230.0760040283203,-18.726999282836914 219.0760040283203,-29.6299991607666 C209.0489959716797,-39.569000244140625 178.8159942626953,-46.75 165.4550018310547,-51.305999755859375 C77.44499969482422,-81.31600189208984 -40.94200134277344,-52.52299880981445 -75.49800109863281,-34.90399932861328 C-88.86900329589844,-28.086999893188477 -107.18000030517578,-20.531999588012695 -116.5260009765625,-16.26099967956543 C-135.93899536132812,-7.388999938964844 -140.61700439453125,2.4570000171661377 -142.7779998779297,16.591999053955078 C-146.7530059814453,42.5989990234375 -114.36100006103516,52.68899917602539 -101.67500305175781,46.09299850463867 C73.31099700927734,-44.888999938964844 146.7689971923828,15.253999710083008 199.64999389648438,14.241999626159668z"></path></g></g><g transform="matrix(0.8327087163925171,0.5537113547325134,-0.5537113547325134,0.8327087163925171,514.3579711914062,51.26289367675781)" opacity="1" style="display: block;"><g opacity="1" transform="matrix(1,0,0,1,25.55500030517578,38.40599822998047)"><path fill="rgb(66,97,237)" fill-opacity="1" d=" M-7.454999923706055,32.59700012207031 C-7.010000228881836,28.75 -7.690000057220459,16.64900016784668 -4.331999778747559,11.51099967956543 C3.2730000019073486,-0.12700000405311584 14.687000274658203,3.119999885559082 17.349000930786133,-13.175999641418457 C18.256000518798828,-18.729999542236328 15.795000076293945,-23.233999252319336 17.246000289916992,-24.531999588012695 C21.900999069213867,-28.69700050354004 16.225000381469727,-37.233001708984375 8.649999618530273,-30.614999771118164 C2.9860000610351562,-25.66699981689453 6.776000022888184,-19.976999282836914 6.052000045776367,-15.41100025177002 C4.330999851226807,-4.553999900817871 -8.54800033569336,-6.449999809265137 -15.020999908447266,2.9260001182556152 C-22.663000106811523,13.996000289916992 -21.92099952697754,30.916000366210938 -21.97100067138672,33.612998962402344"></path><path stroke-linecap="round" stroke-linejoin="round" fill-opacity="0" stroke="rgb(0,46,96)" stroke-opacity="1" stroke-width="3" d=" M-7.454999923706055,32.59700012207031 C-7.010000228881836,28.75 -7.690000057220459,16.64900016784668 -4.331999778747559,11.51099967956543 C3.2730000019073486,-0.12700000405311584 14.687000274658203,3.119999885559082 17.349000930786133,-13.175999641418457 C18.256000518798828,-18.729999542236328 15.795000076293945,-23.233999252319336 17.246000289916992,-24.531999588012695 C21.900999069213867,-28.69700050354004 16.225000381469727,-37.233001708984375 8.649999618530273,-30.614999771118164 C2.9860000610351562,-25.66699981689453 6.776000022888184,-19.976999282836914 6.052000045776367,-15.41100025177002 C4.330999851226807,-4.553999900817871 -8.54800033569336,-6.449999809265137 -15.020999908447266,2.9260001182556152 C-22.663000106811523,13.996000289916992 -21.92099952697754,30.916000366210938 -21.97100067138672,33.612998962402344"></path></g></g><g transform="matrix(0.9053539633750916,-0.4246577322483063,0.4246577322483063,0.9053539633750916,146.6564483642578,148.871826171875)" opacity="1" style="display: block;"><g opacity="1" transform="matrix(1,0,0,1,15.02299976348877,14.381999969482422)"><path fill="rgb(255,255,255)" fill-opacity="1" d=" M-6.296000003814697,-7.406000137329102 C-10.60099983215332,-4.178999900817871 -11.27299976348877,1.7510000467300415 -7.795000076293945,5.841000080108643 C-4.316999912261963,9.930999755859375 1.9919999837875366,10.630999565124512 6.296999931335449,7.40500020980835 C10.60200023651123,4.177999973297119 11.27299976348877,-1.7519999742507935 7.796000003814697,-5.8420000076293945 C4.318999767303467,-9.932000160217285 -1.9910000562667847,-10.631999969482422 -6.296000003814697,-7.406000137329102z"></path><path stroke-linecap="round" stroke-linejoin="round" fill-opacity="0" stroke="rgb(27,46,96)" stroke-opacity="1" stroke-width="3" d=" M-6.296000003814697,-7.406000137329102 C-10.60099983215332,-4.178999900817871 -11.27299976348877,1.7510000467300415 -7.795000076293945,5.841000080108643 C-4.316999912261963,9.930999755859375 1.9919999837875366,10.630999565124512 6.296999931335449,7.40500020980835 C10.60200023651123,4.177999973297119 11.27299976348877,-1.7519999742507935 7.796000003814697,-5.8420000076293945 C4.318999767303467,-9.932000160217285 -1.9910000562667847,-10.631999969482422 -6.296000003814697,-7.406000137329102z"></path></g><g opacity="1" transform="matrix(1,0,0,1,13.222999572753906,13.824999809265137)"><path fill="rgb(27,46,96)" fill-opacity="1" d=" M-4.840000152587891,3.5950000286102295 C-5.044000148773193,1.937999963760376 -5.307000160217285,-2.499000072479248 -2.1659998893737793,-6.085000038146973 C-0.45899999141693115,-8.034000396728516 5.307000160217285,-7.494999885559082 3.38100004196167,-3.058000087738037 C2.8550000190734863,-1.8489999771118164 1.5540000200271606,0.3720000088214874 1.3309999704360962,3.947999954223633 C1.0770000219345093,8.034000396728516 -4.355999946594238,7.519000053405762 -4.840000152587891,3.5950000286102295z"></path></g></g><g transform="matrix(0.8485376834869385,-0.21466577053070068,0.24525663256645203,0.9694582223892212,115.59014129638672,150.17018127441406)" opacity="1" style="display: block;"><g opacity="1" transform="matrix(1,0,0,1,15.02299976348877,14.381999969482422)"><path fill="rgb(255,255,255)" fill-opacity="1" d=" M-6.296000003814697,-7.406000137329102 C-10.60099983215332,-4.178999900817871 -11.27299976348877,1.7510000467300415 -7.795000076293945,5.841000080108643 C-4.316999912261963,9.930999755859375 1.9919999837875366,10.630999565124512 6.296999931335449,7.40500020980835 C10.60200023651123,4.177999973297119 11.27299976348877,-1.7519999742507935 7.796000003814697,-5.8420000076293945 C4.318999767303467,-9.932000160217285 -1.9910000562667847,-10.631999969482422 -6.296000003814697,-7.406000137329102z"></path><path stroke-linecap="round" stroke-linejoin="round" fill-opacity="0" stroke="rgb(27,46,96)" stroke-opacity="1" stroke-width="3" d=" M-6.296000003814697,-7.406000137329102 C-10.60099983215332,-4.178999900817871 -11.27299976348877,1.7510000467300415 -7.795000076293945,5.841000080108643 C-4.316999912261963,9.930999755859375 1.9919999837875366,10.630999565124512 6.296999931335449,7.40500020980835 C10.60200023651123,4.177999973297119 11.27299976348877,-1.7519999742507935 7.796000003814697,-5.8420000076293945 C4.318999767303467,-9.932000160217285 -1.9910000562667847,-10.631999969482422 -6.296000003814697,-7.406000137329102z"></path></g><g opacity="1" transform="matrix(1,0,0,1,13.222999572753906,13.824999809265137)"><path fill="rgb(27,46,96)" fill-opacity="1" d=" M-4.840000152587891,3.5950000286102295 C-5.044000148773193,1.937999963760376 -5.307000160217285,-2.499000072479248 -2.1659998893737793,-6.085000038146973 C-0.45899999141693115,-8.034000396728516 5.307000160217285,-7.494999885559082 3.38100004196167,-3.058000087738037 C2.8550000190734863,-1.8489999771118164 1.5540000200271606,0.3720000088214874 1.3309999704360962,3.947999954223633 C1.0770000219345093,8.034000396728516 -4.355999946594238,7.519000053405762 -4.840000152587891,3.5950000286102295z"></path></g></g><g transform="matrix(0.8617973923683167,-0.5072526335716248,0.5072526335716248,0.8617973923683167,138.56385803222656,163.1446075439453)" opacity="1" style="display: block;"><g opacity="1" transform="matrix(1,0,0,1,5.578999996185303,9.015999794006348)"><path fill="rgb(235,100,114)" fill-opacity="1" d=" M-0.19200000166893005,-3.940999984741211 C-0.1509999930858612,-4.008999824523926 1.5,-4.014999866485596 2.4600000381469727,-4.835999965667725 C2.5390000343322754,-4.9039998054504395 2.6630001068115234,-4.8379998207092285 2.6510000228881836,-4.734000205993652 C2.509999990463257,-3.503999948501587 3.515000104904175,-2.3399999141693115 3.696000099182129,-2.312000036239624 C3.6710000038146973,-2.2320001125335693 3.632999897003174,-2.2829999923706055 3.6070001125335693,-2.2060000896453857 C1.2289999723434448,4.9029998779296875 -3.696000099182129,2.1640000343322754 -0.3179999887943268,-3.7249999046325684 C-0.2770000100135803,-3.7960000038146973 -0.23499999940395355,-3.86899995803833 -0.19200000166893005,-3.940999984741211z"></path></g><g opacity="1" transform="matrix(1,0,0,1,7.298999786376953,5.388999938964844)"><path stroke-linecap="round" stroke-linejoin="round" fill-opacity="0" stroke="rgb(27,46,96)" stroke-opacity="1" stroke-width="3" d=" M3.5490000247955322,1.4229999780654907 C0.7590000033378601,1.6380000114440918 0.878000020980835,-1.2940000295639038 1.0859999656677246,-1.6380000114440918 C-0.5180000066757202,0.15700000524520874 -2.6410000324249268,-0.14300000667572021 -3.5490000247955322,-0.9660000205039978"></path></g></g><g transform="matrix(0.911858320236206,-0.20763778686523438,0.22202502191066742,0.9750409722328186,158.1330108642578,123.3575439453125)" opacity="1" style="display: block;"><g opacity="1" transform="matrix(1,0,0,1,13.019000053405762,11.62399959564209)"><path fill="rgb(255,196,33)" fill-opacity="1" d=" M-8.645000457763672,-6.375999927520752 C-2.312999963760376,-7.249000072479248 2.5,-7.247000217437744 7.857999801635742,-6.09499979019165 C8.451000213623047,-5.9670000076293945 8.645000457763672,-5.446000099182129 8.48799991607666,-4.874000072479248 C7.486000061035156,-1.215000033378601 4.664999961853027,4.23199987411499 1.7940000295639038,7.249000072479248"></path><path stroke-linecap="round" stroke-linejoin="round" fill-opacity="0" stroke="rgb(27,46,96)" stroke-opacity="1" stroke-width="3" d=" M-8.645000457763672,-6.375999927520752 C-2.312999963760376,-7.249000072479248 2.5,-7.247000217437744 7.857999801635742,-6.09499979019165 C8.451000213623047,-5.9670000076293945 8.645000457763672,-5.446000099182129 8.48799991607666,-4.874000072479248 C7.486000061035156,-1.215000033378601 4.664999961853027,4.23199987411499 1.7940000295639038,7.249000072479248"></path></g></g><g transform="matrix(0.8095808625221252,-0.5870083570480347,0.5870083570480347,0.8095808625221252,138.7678985595703,188.9755859375)" opacity="1" style="display: block;"><g opacity="1" transform="matrix(1,0,0,1,22.184999465942383,11.689000129699707)"><path fill="rgb(255,196,33)" fill-opacity="1" d=" M6.335000038146973,-7.124000072479248 C0.024000000208616257,-7.314000129699707 -5.599999904632568,-7.072999954223633 -12.258000373840332,-7.124000072479248 C-16.035999298095703,-7.1529998779296875 -17.809999465942383,-2.2090001106262207 -13.579999923706055,-0.3109999895095825 C-5.422999858856201,3.3489999771118164 17.273000717163086,7.230999946594238 17.809999465942383,7.314000129699707"></path><path stroke-linecap="round" stroke-linejoin="round" fill-opacity="0" stroke="rgb(27,46,96)" stroke-opacity="1" stroke-width="3" d=" M6.335000038146973,-7.124000072479248 C0.024000000208616257,-7.314000129699707 -5.599999904632568,-7.072999954223633 -12.258000373840332,-7.124000072479248 C-16.035999298095703,-7.1529998779296875 -17.809999465942383,-2.2090001106262207 -13.579999923706055,-0.3109999895095825 C-5.422999858856201,3.3489999771118164 17.273000717163086,7.230999946594238 17.809999465942383,7.314000129699707"></path></g></g><g transform="matrix(0.944502592086792,0.3285039961338043,-0.3285039961338043,0.944502592086792,479.290283203125,114.37825012207031)" opacity="1" style="display: block;"><g opacity="1" transform="matrix(1,0,0,1,18.770999908447266,18.31800079345703)"><path fill="rgb(66,97,237)" fill-opacity="1" d=" M-13.543999671936035,11.262999534606934 C-9.925999641418457,11.42300033569336 -2.130000114440918,18.746999740600586 -1.187999963760376,19.125 C1.6139999628067017,20.24799919128418 8.420999526977539,17.74799919128418 2.3980000019073486,6.824999809265137 C-1.9170000553131104,-1.0010000467300415 -5.947000026702881,-4.914999961853027 -11.260000228881836,-5.671999931335449"></path><path stroke-linecap="round" stroke-linejoin="round" fill-opacity="0" stroke="rgb(0,46,96)" stroke-opacity="1" stroke-width="3" d=" M-13.543999671936035,11.262999534606934 C-9.925999641418457,11.42300033569336 -2.130000114440918,18.746999740600586 -1.187999963760376,19.125 C1.6139999628067017,20.24799919128418 8.420999526977539,17.74799919128418 2.3980000019073486,6.824999809265137 C-1.9170000553131104,-1.0010000467300415 -5.947000026702881,-4.914999961853027 -11.260000228881836,-5.671999931335449"></path></g></g><g transform="matrix(1,0,0,1,270.25,126.625)" opacity="1" style="display: block;"></g></g></g></g></g></g></svg>